
        <svg xmlns="http://www.w3.org/2000/svg" xmlns:xlink="http://www.w3.org/1999/xlink" version="1.1" width="3192" height="3192" viewBox="0 0 3192 3192">
			
			<g transform="scale(9.6) translate(10, 10)">
				<defs id="SvgjsDefs1909"/><g id="SvgjsG1910" featureKey="rootContainer" transform="matrix(2.94811320754717,0,0,2.94811320754717,0,0)" fill="#fff"><rect xmlns="http://www.w3.org/2000/svg" width="106" height="106" rx="15" ry="15"/></g><g id="SvgjsG1911" featureKey="symbolFeature-0" transform="matrix(0.8000069851955393,0,0,0.8000069851955393,116.53747426010545,89.00014741814373)" fill="#000000"><g xmlns="http://www.w3.org/2000/svg"><polygon points="86.577,7.027 80.378,68.24 14.344,74.537 80.378,68.24  "/><polygon points="68.623,79.95 75.78,79.563 68.623,79.95  "/><polygon points="17.152,70.724 77.273,64.039 82.966,9.353 25.709,26.652  "/><path d="M86.582,6.992c0-0.004,0.001-0.007,0.001-0.012c0.001-0.004,0.001-0.011,0.002-0.016   c-0.004,0.04-0.008,0.063-0.008,0.063s0.001-0.005,0.002-0.013C86.58,7.01,86.581,7.002,86.582,6.992z"/><path d="M86.602,6.701c0.001-0.028,0.002-0.05,0.002-0.08C86.603,6.649,86.602,6.675,86.602,6.701z"/><path d="M86.486,5.8c0.008,0.024,0.018,0.046,0.025,0.07C86.504,5.846,86.495,5.824,86.486,5.8z"/><path d="M86.585,6.964c0.001-0.009,0.002-0.018,0.003-0.029c0-0.003,0-0.006,0.001-0.009   c0-0.004,0.001-0.013,0.001-0.018C86.588,6.926,86.586,6.951,86.585,6.964z"/><path d="M86.316,5.452c0.011,0.014,0.014,0.034,0.024,0.049c-0.085-0.129-0.188-0.245-0.335-0.317   c-0.569-0.33-1.362-0.116-1.362-0.116L25.58,23.736c-0.632,0.281-1.34,1.008-1.615,2.372l-9.62,48.429l66.034-6.297l6.199-61.212   c0,0,0.003-0.023,0.008-0.063c-0.001,0.005-0.001,0.012-0.002,0.016c-0.001,0.005-0.001,0.008-0.001,0.012   c-0.001,0.009-0.002,0.017-0.003,0.022c-0.001,0.008-0.002,0.013-0.002,0.013L80.378,68.24l-66.034,6.297l-1.159,5.834   c0.002-0.01-0.502,2.635,0.661,2.547l39.98-2.165l0,0l-39.978,2.165c0.073,0.085,0.348,0.224,1.381,0.171l38.623-2.144l1.079,8.118   c0,0,0.234,1.372-0.478,2.816c-0.399,0.81-1.009,1.243-1.544,1.481c-0.104,0.046-0.204,0.085-0.3,0.117   c-0.04,0.013-0.081,0.03-0.119,0.041c-0.102,0.031-0.195,0.053-0.279,0.071c-0.023,0.005-0.05,0.012-0.071,0.016   c-0.089,0.017-0.162,0.027-0.217,0.033c-0.006,0.001-0.018,0.003-0.023,0.003c-0.055,0.006-0.09,0.007-0.09,0.007l-20.953,0.873   c-0.023,0-0.038,0.018-0.059,0.024h-0.043c-0.016,0.008-0.025,0.023-0.039,0.034c-0.014,0.011-0.025,0.018-0.036,0.032   c-0.035,0.041-0.062,0.09-0.062,0.149c0,0.132,0.107,0.239,0.239,0.239l37.308-0.122c0,0,0.45-0.014,0.998-0.254   c0.007-0.003,0.013-0.004,0.02-0.008c0.122-0.054,0.247-0.127,0.375-0.207c0.021-0.013,0.041-0.022,0.062-0.036   c0.116-0.077,0.229-0.174,0.344-0.277c0.033-0.03,0.066-0.052,0.098-0.084c0.103-0.101,0.198-0.225,0.293-0.351   c0.039-0.052,0.08-0.096,0.117-0.152c0.084-0.127,0.155-0.277,0.228-0.428c0.031-0.064,0.069-0.113,0.097-0.182l-0.011,0   c0.026-0.063,0.06-0.11,0.084-0.177c0.71-1.996,0.147-4.138,0.147-4.138l-2.347-8.464l8.089-0.449c0,0,1.15,0.086,2.155-0.71   c1.004-0.796,1.175-2.681,1.175-2.681l6.77-68.422C86.859,7.86,87.193,5.942,86.316,5.452z M77.273,64.039l-60.121,6.684   l8.557-44.072L82.966,9.353L77.273,64.039z M68.623,79.95L68.623,79.95l7.156-0.388L68.623,79.95z M86.511,5.871   c-0.007-0.024-0.017-0.047-0.025-0.07C86.495,5.824,86.504,5.846,86.511,5.871z M86.588,6.935   c-0.001,0.011-0.002,0.019-0.003,0.029c0.001-0.013,0.003-0.038,0.005-0.055c0,0.005-0.001,0.013-0.001,0.018   C86.588,6.929,86.588,6.932,86.588,6.935z M86.602,6.701c0.001-0.026,0.002-0.052,0.002-0.08   C86.603,6.651,86.603,6.673,86.602,6.701z"/></g></g><g id="SvgjsG1912" featureKey="nameFeature-0" transform="matrix(1.10107369638333,0,0,1.10107369638333,55.99988948058458,174.29756232706993)" fill="#000000"><path d="M6.76 29.28 l-3.1599 0 l0 10.72 l-3.6 0 l0 -30 l7.32 0 c2.64 0 4.7 0.85332 6.18 2.56 s2.22 4.1068 2.22 7.2 c0 1.3867 -0.21332 2.66 -0.64 3.82 s-1.0334 2.16 -1.82 3 s-1.7334 1.5 -2.84 1.98 s-2.3267 0.72 -3.66 0.72 z M6.6 13.52 l-3 0.00011719 l0 12.16 l2.6 0 c1.12 0 2.0533 -0.16 2.8 -0.48 s1.3467 -0.75332 1.8 -1.3 s0.78 -1.18 0.98 -1.9 s0.3 -1.4933 0.3 -2.32 c0 -0.90668 -0.07332 -1.7334 -0.22 -2.48 s-0.42 -1.3934 -0.82 -1.94 s-0.96 -0.97336 -1.68 -1.28 s-1.64 -0.46 -2.76 -0.46 z M30.611000000000004 40 l-0.04 -13.24 l-8.4 0 l0.04 13.24 l-3.6 0 l0 -30 l3.6 0 l-0.04 13.2 l8.4 0 l0.04 -13.2 l3.64 0 l0 30 l-3.64 0 z M38.382000000000005 40 l0 -30 l3 0 l0 30 l-3 0 z M45.43300000000001 40 l0 -30 l3.4 0 l0 26.4 l8.96 0 l0 3.6 l-12.36 0 z M60.644000000000005 40 l0 -30 l3 0 l0 30 l-3 0 z M74.45500000000001 29.28 l-3.1599 0 l0 10.72 l-3.6 0 l0 -30 l7.32 0 c2.64 0 4.7 0.85332 6.18 2.56 s2.22 4.1068 2.22 7.2 c0 1.3867 -0.21332 2.66 -0.64 3.82 s-1.0334 2.16 -1.82 3 s-1.7334 1.5 -2.84 1.98 s-2.3267 0.72 -3.66 0.72 z M74.295 13.52 l-3 0.00011719 l0 12.16 l2.6 0 c1.12 0 2.0533 -0.16 2.8 -0.48 s1.3467 -0.75332 1.8 -1.3 s0.78 -1.18 0.98 -1.9 s0.3 -1.4933 0.3 -2.32 c0 -0.90668 -0.07332 -1.7334 -0.22 -2.48 s-0.42 -1.3934 -0.82 -1.94 s-0.96 -0.97336 -1.68 -1.28 s-1.64 -0.46 -2.76 -0.46 z M108.71700000000001 33.64 c-0.18668 0.85332 -0.45992 1.6598 -0.81992 2.4198 s-0.83332 1.4333 -1.42 2.02 s-1.3 1.0534 -2.14 1.4 s-1.82 0.52 -2.94 0.52 l-7.32 0 l0 -30 l7.04 0 c1.9733 0 3.66 0.5 5.06 1.5 s2.3 2.6733 2.7 5.02 c0.05332 0.42668 0.10664 1.0734 0.15996 1.94 s0.09332 1.8534 0.12 2.96 s0.04 2.2734 0.04 3.5 s-0.02 2.4067 -0.06 3.54 s-0.09332 2.16 -0.16 3.08 s-0.15336 1.62 -0.26004 2.1 z M100.79700000000001 13.52 l-3.44 0.000078124 l0 22.88 l3.96 0 c1.04 0 1.8933 -0.36668 2.56 -1.1 s1.16 -1.54 1.48 -2.42 c0.10668 -0.29332 0.19336 -0.85332 0.26004 -1.68 s0.12 -1.78 0.16 -2.86 s0.06 -2.22 0.06 -3.42 s-0.01332 -2.3333 -0.04 -3.4 s-0.07336 -2 -0.14004 -2.8 s-0.14 -1.3467 -0.22 -1.64 c-0.16 -0.42668 -0.34 -0.85336 -0.54 -1.28 s-0.47332 -0.81336 -0.82 -1.16 s-0.78 -0.62 -1.3 -0.82 s-1.18 -0.3 -1.98 -0.3 z M120.44800000000002 40.36 c-2.4267 0 -4.32 -0.71328 -5.68 -2.14 s-2.04 -3.4867 -2.04 -6.18 l0 -22.04 l3.48 0 l0 21.96 c0 0.56 0.07332 1.1333 0.22 1.72 s0.38 1.1067 0.7 1.56 s0.74668 0.82664 1.28 1.12 s1.1866 0.44 1.96 0.44 c0.88 0 1.6133 -0.12668 2.2 -0.38 s1.0534 -0.62 1.4 -1.1 s0.59336 -1.0533 0.74004 -1.72 s0.22 -1.4 0.22 -2.2 l0 -21.4 l3.44 0 l0 22.04 c0 2.7467 -0.65332 4.82 -1.96 6.22 s-3.2934 2.1 -5.96 2.1 z M132.699 40 l0 -30 l3.4 0 l0 26.4 l8.96 0 l0 3.6 l-12.36 0 z M154.23000000000002 40.36 c-2.5067 0 -4.3932 -0.70668 -5.66 -2.12 s-1.9 -3.48 -1.9 -6.2 l0 -14 c0 -2.7467 0.64 -4.82 1.92 -6.22 s3.32 -2.1 6.12 -2.1 c2.56 0 4.4668 0.70668 5.72 2.12 s1.88 3.4533 1.88 6.12 l0 14.08 c0 2.7467 -0.61332 4.82 -1.84 6.22 s-3.3067 2.1 -6.24 2.1 z M158.87 17.92 c0 -0.58668 -0.07328 -1.1667 -0.21996 -1.74 s-0.38 -1.0866 -0.7 -1.54 s-0.74668 -0.82 -1.28 -1.1 s-1.2 -0.42 -2 -0.42 c-0.90668 0 -1.6534 0.12 -2.24 0.36 s-1.0534 0.59332 -1.4 1.06 s-0.58668 1.02 -0.72 1.66 s-0.2 1.36 -0.2 2.16 l0 13.48 c0 0.61332 0.06668 1.22 0.2 1.82 s0.35332 1.14 0.66 1.62 s0.72668 0.86668 1.26 1.16 s1.2 0.44 2 0.44 c0.90668 0 1.66 -0.11332 2.26 -0.34 s1.0733 -0.55336 1.42 -0.98004 s0.59336 -0.94668 0.74004 -1.56 s0.22 -1.2933 0.22 -2.04 l0 -14.04 z M173.60100000000003 40.36 c-2.5067 0 -4.3932 -0.71332 -5.66 -2.14 s-1.9 -3.4867 -1.9 -6.18 l0 -14 c0 -2.7467 0.64 -4.82 1.92 -6.22 s3.2933 -2.1 6.04 -2.1 c2.5867 0 4.5068 0.70668 5.76 2.12 s1.88 3.4533 1.88 6.12 l0 2.8 l-3.48 0 l0 -3.2 c0 -0.58668 -0.06 -1.16 -0.18 -1.72 s-0.34 -1.06 -0.66 -1.5 s-0.75332 -0.79332 -1.3 -1.06 s-1.2467 -0.4 -2.1 -0.4 s-1.5666 0.12 -2.14 0.36 s-1.0333 0.58 -1.38 1.02 s-0.58668 0.98 -0.72 1.62 s-0.2 1.36 -0.2 2.16 l0 14.16 c0 1.6267 0.3 2.84 0.9 3.64 s1.7 1.2 3.3 1.2 c1.76 0 2.96 -0.42 3.6 -1.26 s0.96 -1.9933 0.96 -3.46 l0 -4.8 l-5.64 -0.04 l0 -3.4 l9.04 0.04 l0 7.92 c0 2.72 -0.62 4.7868 -1.86 6.2 s-3.3 2.12 -6.18 2.12 z"/></g>
			</g>
		</svg>
	