<svg xmlns="http://www.w3.org/2000/svg" version="1.1" xmlns:xlink="http://www.w3.org/1999/xlink" xmlns:svgjs="http://svgjs.dev/svgjs" width="2000" height="1500" viewBox="0 0 2000 1500"><rect width="2000" height="1500" fill="#003366"></rect><g transform="matrix(0.75,0,0,0.75,249.090909090909,282.7536437246964)"><svg viewBox="0 0 396 247" data-background-color="#003366" preserveAspectRatio="xMidYMid meet" height="1247" width="2000" xmlns="http://www.w3.org/2000/svg" xmlns:xlink="http://www.w3.org/1999/xlink"><g id="tight-bounds" transform="matrix(1,0,0,1,0.2400000000000091,-0.09999999999999432)"><svg viewBox="0 0 395.52 247.2" height="247.2" width="395.52"><g><svg></svg></g><g><svg viewBox="0 0 395.52 247.2" height="247.2" width="395.52"><g transform="matrix(1,0,0,1,75.54432,99.74838407494144)"><svg viewBox="0 0 244.43135999999998 47.70323185011709" height="47.70323185011709" width="244.43135999999998"><g><svg viewBox="0 0 244.43135999999998 47.70323185011709" height="47.70323185011709" width="244.43135999999998"><g><svg viewBox="0 0 244.43135999999998 47.70323185011709" height="47.70323185011709" width="244.43135999999998"><g><svg viewBox="0 0 244.43135999999998 47.70323185011709" height="47.70323185011709" width="244.43135999999998"><g id="textblocktransform"><svg viewBox="0 0 244.43135999999998 47.70323185011709" height="47.70323185011709" width="244.43135999999998" id="textblock"><g><svg viewBox="0 0 244.43135999999998 47.70323185011709" height="47.70323185011709" width="244.43135999999998"><g transform="matrix(1,0,0,1,0,0)"><svg width="244.43135999999998" viewBox="2.6 -37.5 256.16999999999996 50" height="47.70323185011709" data-palette-color="#ffffff"><path d="M5.75-32.25L2.6-32.25 2.6-35 13-35Q19.15-35 22.13-32.9 25.1-30.8 25.1-24.98 25.1-19.15 22.03-16.38 18.95-13.6 13-13.6L13-13.6 9.15-13.6 9.15-2.75 12.7-2.75 12.7 0 2.6 0 2.6-2.75 5.75-2.75 5.75-32.25ZM12.75-32.25L12.75-32.25 9.15-32.25 9.15-16.35 12.75-16.35Q17.25-16.35 19.48-18.32 21.7-20.3 21.7-24.78 21.7-29.25 19.5-30.75 17.3-32.25 12.75-32.25ZM54.55 0L44.45 0 44.45-2.5 47.5-2.5 47.5-17.1Q47.5-18.85 46.77-19.95 46.05-21.05 44.9-21.4L44.9-21.4Q43-22.05 41.8-21.95L41.8-21.95Q38.55-21.85 34.65-19.65L34.65-19.65 34.65-2.5 38.45-2.5 38.45 0 28.35 0 28.35-2.5 31.4-2.5 31.4-35 28.05-35 28.05-37.5 34.65-37.5 34.65-21.9Q41.2-26.4 46.5-24.7L46.5-24.7Q47.7-24.35 48.57-23.68 49.45-23 50.1-21.65 50.75-20.3 50.75-18.4L50.75-18.4 50.75-2.5 54.55-2.5 54.55 0ZM60.3-22.5L56.95-22.5 56.95-25 63.55-25 63.55-2.5 67.3-2.5 67.3 0 57.2 0 57.2-2.5 60.3-2.5 60.3-22.5ZM61.85-31.7Q60.85-31.7 60.3-32.33 59.75-32.95 59.75-33.98 59.75-35 60.32-35.63 60.9-36.25 61.9-36.25 62.9-36.25 63.52-35.63 64.15-35 64.15-33.93 64.15-32.85 63.5-32.27 62.85-31.7 61.85-31.7ZM73.04-35L69.69-35 69.69-37.5 76.29-37.5 76.29-2.5 80.04-2.5 80.04 0 69.94 0 69.94-2.5 73.04-2.5 73.04-35ZM85.24-22.5L81.89-22.5 81.89-25 88.49-25 88.49-2.5 92.24-2.5 92.24 0 82.14 0 82.14-2.5 85.24-2.5 85.24-22.5ZM86.79-31.7Q85.79-31.7 85.24-32.33 84.69-32.95 84.69-33.98 84.69-35 85.27-35.63 85.84-36.25 86.84-36.25 87.84-36.25 88.47-35.63 89.09-35 89.09-33.93 89.09-32.85 88.44-32.27 87.79-31.7 86.79-31.7ZM97.99-22.5L94.64-22.5 94.64-25 101.24-25 101.24-23.15Q104.39-25.45 107.94-25.45L107.94-25.45Q111.34-25.45 114.34-23.35L114.34-23.35Q115.94-22.2 116.91-19.75 117.89-17.3 117.89-13.8L117.89-13.8Q117.89-7.15 114.59-3.8L114.59-3.8Q110.84 0 104.89 0L104.89 0Q103.14 0 101.24-0.25L101.24-0.25 101.24 10 105.49 10 105.49 12.5 94.89 12.5 94.89 10 97.99 10 97.99-22.5ZM101.24-21.1L101.24-21.1 101.24-2.8Q102.69-2.45 104.39-2.45L104.39-2.45Q109.34-2.45 111.99-5.35 114.64-8.25 114.64-13.55L114.64-13.55Q114.64-19.7 111.04-21.6L111.04-21.6Q109.29-22.55 106.99-22.55 104.69-22.55 101.24-21.1ZM140.63-32.25L137.58-32.25 137.58-35 149.63-35Q156.38-35 160.46-31.08 164.53-27.15 164.53-18.3L164.53-18.3Q164.53-9.55 161.68-5.2L161.68-5.2Q159.18-1.4 153.88-0.4L153.88-0.4Q151.53 0 148.38 0L148.38 0 137.58 0 137.58-2.75 140.63-2.75 140.63-32.25ZM149.38-32.25L149.38-32.25 144.03-32.25 144.03-2.75 148.13-2.75Q154.78-2.75 157.28-5.2L157.28-5.2Q159.93-7.75 160.68-12.1L160.68-12.1Q161.13-14.65 161.13-18.05L161.13-18.05Q161.13-25.55 157.86-28.9 154.58-32.25 149.38-32.25ZM187.93 0L187.43-2.9Q182.88 0.15 178.83 0.15L178.83 0.15Q177.13 0.15 174.83-0.7L174.83-0.7Q173.33-1.25 172.43-2.78 171.53-4.3 171.53-6.6L171.53-6.6 171.53-22.5 168.03-22.5 168.03-25 174.78-25 174.78-7.6Q174.78-5.85 175.53-4.73 176.28-3.6 177.43-3.25L177.43-3.25Q179.33-2.65 180.48-2.75L180.48-2.75Q183.48-2.8 187.43-4.9L187.43-4.9 187.43-22.5 183.93-22.5 183.93-25 190.68-25 190.68-2.5 194.53-2.5 194.53 0 187.93 0ZM200.73-35L197.38-35 197.38-37.5 203.98-37.5 203.98-2.5 207.73-2.5 207.73 0 197.63 0 197.63-2.5 200.73-2.5 200.73-35ZM220.65 0.2Q215.43 0.2 212.2-2.8 208.98-5.8 208.98-11.98 208.98-18.15 212.4-21.68 215.83-25.2 221.03-25.2 226.23-25.2 229.48-22.2 232.73-19.2 232.73-13.03 232.73-6.85 229.3-3.33 225.88 0.2 220.65 0.2ZM220.95-22.3Q217.23-22.3 214.73-19.6 212.23-16.9 212.23-12.28 212.23-7.65 214.6-5.18 216.98-2.7 220.73-2.7 224.48-2.7 226.98-5.38 229.48-8.05 229.48-12.68 229.48-17.3 227.08-19.8 224.68-22.3 220.95-22.3ZM234.77 5.2L234.77 5.2Q234.77 0.7 240.12-2.7L240.12-2.7Q238.02-4.2 238.02-6.28 238.02-8.35 239.82-9.65L239.82-9.65Q236.12-11.45 236.12-16.95L236.12-16.95Q236.12-20.8 239.02-23 241.92-25.2 246.42-25.2L246.42-25.2Q247.87-25.2 249.37-24.95L249.37-24.95 258.77-25.2 258.67-23.3 253.22-23.3Q255.97-21.25 255.97-17.15 255.97-13.05 253.22-10.8 250.47-8.55 246.12-8.55L246.12-8.55Q243.32-8.55 241.47-9.05L241.47-9.05Q240.52-8.15 240.52-6.75 240.52-5.35 242.25-4.58 243.97-3.8 246.7-3.43 249.42-3.05 250.67-2.78 251.92-2.5 253.57-1.9 255.22-1.3 256.22-0.5L256.22-0.5Q258.57 1.45 258.57 4.7L258.57 4.7Q258.57 6.95 257.52 8.55 256.47 10.15 254.62 11L254.62 11Q251.22 12.5 246.52 12.5L246.52 12.5Q240.27 12.5 237.52 10.35 234.77 8.2 234.77 5.2ZM238.02 4.85L238.02 4.85Q238.02 6.9 240.02 8.25 242.02 9.6 246.12 9.6L246.12 9.6Q255.32 9.6 255.32 4.7L255.32 4.7Q255.32 2.25 253.12 1.2L253.12 1.2Q251.22 0.25 248.92-0.2L248.92-0.2Q244.02-0.9 241.87-1.75L241.87-1.75Q238.02 1.4 238.02 4.85ZM246.27-22.55Q243.17-22.55 241.27-21.13 239.37-19.7 239.37-16.88 239.37-14.05 240.85-12.63 242.32-11.2 245.57-11.2 248.82-11.2 250.7-12.83 252.57-14.45 252.57-17.25L252.57-17.25Q252.57-22.55 246.27-22.55L246.27-22.55Z" opacity="1" transform="matrix(1,0,0,1,0,0)" fill="#ffffff" class="wordmark-text-0" data-fill-palette-color="primary" id="text-0"></path></svg></g></svg></g></svg></g></svg></g></svg></g></svg></g></svg></g><g><path d="M245.816 0c68.262 0 123.6 55.338 123.6 123.6 0 68.262-55.338 123.6-123.6 123.6-58.102 0-106.84-40.09-120.062-94.118l2.216 0c13.174 52.828 60.939 91.967 117.846 91.967 67.074 0 121.449-54.375 121.449-121.449 0-67.074-54.375-121.449-121.449-121.449-56.907 0-104.672 39.139-117.846 91.967h-2.216c13.222-54.027 61.96-94.118 120.062-94.118z" fill="#ffffff" stroke="transparent" data-fill-palette-color="tertiary"></path></g></svg></g><defs></defs></svg><rect width="395.52" height="247.2" fill="none" stroke="none" visibility="hidden"></rect></g></svg></g></svg>